<svg width="7" height="2" viewBox="0 0 7 2" fill="none" xmlns="http://www.w3.org/2000/svg">
<path d="M0.270508 0.668945L0.927734 0H1.24414L0.540039 0.716797L1.28027 1.50586H0.951172L0.270508 0.800781V1.50586H0V0H0.270508V0.668945ZM1.76074 0.632812H2.5127V0H2.77051V1.50586H2.5127V0.848633H1.76074V1.50586H1.49121V0H1.76074V0.632812ZM5.49512 0C5.90599 4.91251e-05 6.23438 0.334773 6.23438 0.75293H6C6 0.466202 5.77685 0.239306 5.49512 0.239258C5.27203 0.239258 5.08419 0.382587 5.01367 0.597656C5.00201 0.645412 4.99023 0.705214 4.99023 0.75293V1.50586H4.97852C4.84938 1.50586 4.75488 1.39781 4.75488 1.27832V0.75293C4.75488 0.549811 4.83759 0.346504 4.99023 0.203125C5.13112 0.0717085 5.3073 0 5.49512 0ZM6.23438 1.50586H5.90625L5.82324 1.42188L5.64746 1.24219L5.40137 0.991211H5.72949L6.23438 1.50586ZM4.29785 0C4.41493 0.000245224 4.52028 0.0955172 4.52051 0.226562V1.35059L4.28613 1.11133V0.394531C4.28613 0.310891 4.21501 0.239258 4.13281 0.239258H3.42871C3.34651 0.239258 3.27637 0.310891 3.27637 0.394531V1.11133C3.27646 1.1949 3.34657 1.2666 3.42871 1.2666H4.13281L4.36816 1.49316H3.27637C3.15894 1.49316 3.05279 1.39797 3.05273 1.2666V0.226562C3.05296 0.107249 3.14731 0 3.27637 0H4.29785Z" fill="white"/>
</svg>
